<svg width="47" height="35" viewBox="0 0 47 35" fill="none" xmlns="http://www.w3.org/2000/svg">
<g clip-path="url(#clip0_792_9371)">
<path d="M42.7919 11.3649C42.5446 11.7328 42.4546 12.1756 42.3792 12.6371C42.2869 13.199 42.1894 13.7384 41.9873 14.2674C41.7446 14.9013 41.3366 15.6075 40.627 16.1603C39.895 14.2145 38.8289 12.4067 37.4751 10.8155C38.3209 10.4832 39.1509 10.4883 39.8334 10.599C40.4002 10.6913 40.9241 10.878 41.4654 11.0802C41.9093 11.247 42.3442 11.3919 42.7917 11.3649H42.7919ZM34.5563 3.2666L34.556 3.26705L34.5566 3.2669C34.5292 3.70685 34.6764 4.13451 34.8458 4.57116C35.0515 5.10341 35.2414 5.61843 35.3354 6.17586C35.4479 6.84747 35.453 7.66473 35.1141 8.49713C33.4935 7.16785 31.6529 6.12192 29.6725 5.4049C30.2358 4.70108 30.9573 4.29754 31.6048 4.05779C32.1427 3.85909 32.6913 3.76334 33.263 3.67223C33.7321 3.59821 34.1823 3.5101 34.5563 3.2666ZM41.494 19.3394C42.3891 19.4696 43.1013 19.8802 43.6336 20.3095C44.0775 20.6682 44.4361 21.0875 44.8022 21.529C45.1017 21.8911 45.4047 22.2305 45.8058 22.4273H41.7648C41.7637 21.3923 41.673 20.3593 41.494 19.3394ZM12.0571 3.2669L12.0574 3.2672V3.2666C12.4313 3.50995 12.8816 3.59806 13.3508 3.67238C13.9222 3.76319 14.4708 3.85909 15.0087 4.05764C15.6562 4.29739 16.3777 4.70108 16.9409 5.40475C14.9604 6.12172 13.1199 7.1677 11.4994 8.49713C11.1605 7.66473 11.1653 6.84747 11.2783 6.17571C11.3721 5.61828 11.562 5.10326 11.7676 4.57086C11.937 4.13436 12.0845 3.70685 12.0571 3.2669ZM3.8218 11.3652L3.82226 11.3653L3.82211 11.365C4.2695 11.3919 4.70439 11.247 5.14843 11.0803C5.68969 10.878 6.21342 10.6913 6.78013 10.599C7.46279 10.4884 8.29281 10.4833 9.13853 10.8157C7.78492 12.407 6.7189 14.2147 5.98683 16.1604C5.27704 15.6075 4.86927 14.9014 4.62638 14.2674C4.42432 13.7384 4.32695 13.199 4.23445 12.6371C4.15902 12.1756 4.06927 11.7329 3.8218 11.3652ZM0.807861 22.4274C1.20908 22.2307 1.51186 21.8914 1.81159 21.5291C2.17731 21.0878 2.53617 20.6685 2.9799 20.31C3.51232 19.8803 4.22409 19.4698 5.11933 19.3397C4.9404 20.3595 4.85002 21.3925 4.84916 22.4274H0.807861ZM23.3069 0.30249V0.30294L23.3072 0.30249C23.5071 0.697185 23.8523 0.99493 24.2209 1.28998C24.6697 1.64961 25.0962 2.00235 25.4608 2.4387C25.9001 2.96556 26.3202 3.67103 26.4498 4.55932C25.4117 4.38406 24.3603 4.29598 23.3071 4.29604C22.2355 4.29604 21.1858 4.38685 20.1641 4.55932C20.2936 3.67118 20.7137 2.96556 21.153 2.439C21.518 2.00235 21.9443 1.64961 22.3931 1.28968C22.7615 0.995079 23.1067 0.697185 23.3069 0.30249Z" fill="#8298AF"/>
<path d="M19.5532 22.4314L20.942 22.4275C21.1244 21.274 20.7676 20.3858 19.5812 20.5978C18.5813 20.7763 17.5073 21.7532 16.8582 22.4275L18.6892 22.4195C18.8932 22.2877 19.2926 22.1371 19.4566 22.2491C19.5178 22.2911 19.55 22.3507 19.5532 22.4314Z" fill="#8298AF"/>
<path d="M25.7985 22.4275H27.5311C27.6135 20.4155 27.2839 18.3379 26.3328 16.5402C25.4676 14.9046 24.0375 13.7929 22.186 13.5242C19.4833 13.1321 16.7561 14.2573 14.4504 15.8669C11.9401 17.6195 9.86802 19.9998 8.05713 22.4276L10.3459 22.4243C12.4064 19.5524 17.1456 15.1923 20.6319 15.1638C21.7428 15.1548 22.8725 15.4112 23.7077 16.144C24.3128 16.675 25.0465 17.7061 25.0106 18.543C24.9892 19.0391 24.5414 19.1914 24.112 19.0375C23.7784 18.9182 23.5428 18.6184 23.3094 18.3031C22.5508 17.2789 21.3676 16.7777 20.0698 16.9524C18.5217 17.1605 16.603 18.3425 15.3653 19.4174C14.2982 20.3446 13.3184 21.3591 12.3942 22.4276H14.8548C15.7568 21.3568 16.7092 20.4437 17.9334 19.6938C18.3207 19.4566 18.7979 19.2056 19.2993 19.036C20.5644 18.6085 21.8232 18.7168 22.3823 20.2656C22.6019 20.8746 22.6342 21.4088 22.5702 22.3876V22.4276H24.2433L24.2476 22.3773C24.2488 21.8413 24.2369 21.48 24.2862 20.9488C24.3284 20.4909 24.4731 20.0164 24.9056 19.9601C25.8246 19.7707 25.7806 21.7813 25.7985 22.4276V22.4275Z" fill="#8298AF"/>
<path d="M29.3529 22.4275H31.0999C31.1845 20.5608 31.0218 18.3493 30.4075 16.4182C30.2891 16.0431 30.1498 15.6746 29.9904 15.3144C29.6186 14.4799 29.1182 13.7246 28.5218 13.0264C27.8586 12.251 27.0687 11.5536 26.178 11.0044C25.914 10.8414 25.6413 10.6922 25.3613 10.5574V10.5571C25.08 10.4218 24.7912 10.3022 24.4962 10.1991L24.495 10.1987C21.0931 9.01084 17.6523 9.85553 14.7659 11.3994C14.2102 11.6974 13.6696 12.0219 13.1461 12.3717C12.6415 12.7086 12.1518 13.0665 11.6784 13.4445L11.6773 13.4452C11.0022 13.9843 10.3636 14.5661 9.76553 15.1869C9.63189 15.3261 9.49993 15.4679 9.37163 15.611C9.02831 15.9938 8.49924 16.5304 8.6562 17.0852C8.78054 17.5251 9.35791 17.3953 9.5589 17.244C9.86763 17.0811 10.2065 16.8229 10.4968 16.5815C10.8895 16.2546 11.2605 15.9024 11.6496 15.571C13.2226 14.2298 14.8624 13.1957 16.4775 12.4958C16.8238 12.3455 17.176 12.2084 17.5331 12.0848C17.8763 11.9659 18.2244 11.8613 18.5765 11.771L18.578 11.7706C21.5834 11.0033 24.8491 11.5004 26.9401 13.9104C28.9546 16.2319 29.3221 19.3394 29.3529 22.4276V22.4275ZM7.67715 19.8034C7.86488 19.631 8.05612 19.4063 8.25544 19.1575C8.53429 18.8096 8.56233 18.4727 8.45201 18.2297C8.41217 18.1411 8.35222 18.0626 8.27677 18.0003C8.20378 17.9401 8.11738 17.8977 8.02458 17.8765C7.79738 17.8254 7.52553 17.9054 7.29467 18.1816C7.0338 18.4937 6.67342 19.0276 6.59982 19.4999C6.58571 19.5843 6.58294 19.6701 6.59159 19.7551C6.60073 19.8336 6.62206 19.9083 6.65787 19.9764L6.65818 19.977C6.717 20.0879 6.8162 20.1464 6.94831 20.1513C6.97589 20.1522 7.00576 20.151 7.03745 20.1476C7.06839 20.1443 7.10191 20.1381 7.13757 20.13V20.1303L7.1394 20.1299C7.31738 20.0879 7.49536 19.9701 7.67715 19.8032V19.8034Z" fill="#8298AF"/>
<path d="M33.7228 22.4281L33.7352 22.4278H33.7414C33.9243 22.4377 34.2415 22.355 34.4245 22.0514C34.461 21.9907 34.4924 21.9213 34.516 21.8427C34.5404 21.7625 34.5571 21.6716 34.5641 21.5695L34.5655 21.5485C34.7043 16.7774 33.2183 12.8275 30.6953 10.1442C30.2098 9.62707 29.6794 9.15247 29.1103 8.72574C28.5471 8.30379 27.947 7.93182 27.317 7.61418H27.3169L27.3068 7.60939L27.3065 7.60909C25.186 6.54338 22.7808 6.13415 20.4203 6.3309C19.4999 6.40737 18.5897 6.57545 17.7038 6.83258L17.6975 6.83453C15.2698 7.54076 13.0106 8.94257 11.1695 10.7818C10.6323 11.3182 10.1327 11.8899 9.67407 12.4927C10.9652 11.3973 12.3503 10.4365 13.7992 9.67307C14.1222 9.50261 14.4502 9.3415 14.7828 9.18996C15.1118 9.04005 15.4455 8.90032 15.7835 8.77099L15.7844 8.77069L15.7853 8.77025C17.0653 8.281 18.3272 7.96902 19.5893 7.82966C20.8514 7.6903 22.1143 7.72327 23.3969 7.92376C24.3097 8.06672 25.2005 8.30168 26.0031 8.63044C26.1586 8.69412 26.3119 8.76185 26.4619 8.83348C26.61 8.90406 26.7558 8.97898 26.8986 9.05825H26.8988L26.901 9.05945L26.9009 9.0596C29.7265 10.5811 31.6895 13.703 32.5541 17.228C32.8935 18.6139 33.0604 20.0352 33.0511 21.4607V21.461L33.0507 21.5021C33.0652 21.8837 33.1982 22.2032 33.4261 22.3469C33.4685 22.3736 33.5145 22.3946 33.5634 22.408H33.5637C33.6137 22.422 33.6668 22.429 33.7228 22.4281Z" fill="#8298AF"/>
<path d="M28.6707 6.52673C35.4643 8.73322 40.3738 15.0155 40.4025 22.4278H37.0409C37.2634 15.953 34.3897 10.1085 28.6707 6.52673Z" fill="#8298AF"/>
<path d="M4.1488 32.8305H2.3642L1.9222 34.3675H0.5L2.382 28.481H4.184L6.119 34.3675H4.6348L4.1488 32.8305ZM2.5674 31.8347H3.9368C3.5776 30.6846 3.3448 29.8958 3.2388 29.4677H3.221L2.9384 30.5858L2.5674 31.8347ZM10.704 32.8305H8.9192L8.4776 34.3675H7.0552L8.9368 28.481H10.7394L12.6742 34.3675H11.19L10.704 32.8305ZM9.1224 31.8347H10.4918C10.1326 30.6846 9.8998 29.8958 9.7938 29.4677H9.7762L9.4936 30.5858L9.1224 31.8347ZM14.0342 34.3414V28.5597C14.6232 28.4723 15.2534 28.4286 15.9248 28.4286C17.1942 28.4286 18.1056 28.6906 18.658 29.2161C19.21 29.7416 19.4854 30.4286 19.4854 31.2758C19.4854 32.2773 19.1718 33.0531 18.543 33.6034C17.9142 34.1534 16.944 34.4286 15.6334 34.4286C15.0268 34.4286 14.4936 34.3995 14.0342 34.3414ZM15.4036 29.5203V33.3544C15.4802 33.3718 15.6452 33.3805 15.8984 33.3805C16.5786 33.3805 17.1058 33.203 17.4784 32.8493C17.851 32.4954 18.0364 31.9891 18.0364 31.3282C18.0364 30.7226 17.8672 30.2611 17.527 29.9438C17.1868 29.6265 16.6966 29.4677 16.0574 29.4677C15.7894 29.4677 15.5714 29.4855 15.4036 29.5203ZM20.9516 28.481H22.321V30.7429H24.6622V28.4812H26.0318V34.3675H24.6622V31.9134H22.321V34.3675H20.9516V28.481ZM30.9964 32.8305H29.2118L28.77 34.3675H27.3476L29.2296 28.481H31.0318L32.9668 34.3675H31.4824L30.9964 32.8305ZM29.415 31.8347H30.7844C30.4252 30.6846 30.1924 29.8958 30.0864 29.4677H30.0688L29.786 30.5858L29.415 31.8347ZM37.5516 32.8305H35.7668L35.325 34.3675H33.9026L35.7844 28.481H37.5868L39.5216 34.3675H38.0376L37.5516 32.8305ZM35.97 31.8347H37.3394C36.9802 30.6846 36.7474 29.8958 36.6414 29.4677H36.6238L36.341 30.5858L35.97 31.8347ZM40.8816 34.3673V28.5597C41.3826 28.4723 41.998 28.4286 42.7284 28.4286C43.6296 28.4286 44.2774 28.5757 44.672 28.8697C45.0666 29.1637 45.264 29.5844 45.264 30.1316C45.264 30.4578 45.1652 30.7518 44.9664 31.0154C44.7731 31.2749 44.5038 31.4695 44.195 31.5727V31.6075C44.566 31.7445 44.834 32.1055 44.999 32.6905C45.3022 33.7443 45.467 34.3034 45.4936 34.3675H44.0976C43.98 34.1492 43.8386 33.6921 43.6736 32.9962C43.5912 32.6471 43.4792 32.4025 43.338 32.2627C43.1966 32.1229 42.9698 32.0531 42.6576 32.0531H42.2336V34.3675H40.8816V34.3673ZM42.2336 29.4677V31.0836H42.799C43.1406 31.0836 43.41 31.0065 43.6074 30.8537C43.8048 30.7008 43.9034 30.4956 43.9034 30.2364C43.9034 29.9774 43.815 29.7764 43.6368 29.6354C43.4588 29.494 43.2054 29.4242 42.8786 29.4242C42.5576 29.4242 42.3426 29.4389 42.2336 29.4677Z" fill="#8298AF"/>
</g>
<defs>
<clipPath id="clip0_792_9371">
<rect width="46" height="35" fill="white" transform="translate(0.5)"/>
</clipPath>
</defs>
</svg>
