<svg width="27" height="38" viewBox="0 0 27 38" fill="none" xmlns="http://www.w3.org/2000/svg">
<path d="M7.61111 33.7037V30.8148H19.3889V33.7037C19.3889 34.1481 19.2407 34.5926 19.0185 35.037L17.7593 36.8889C17.3148 37.5556 16.5741 38 15.7593 38H11.2407C10.4259 38 9.68518 37.5556 9.24074 36.8889L7.98148 35.037C7.68518 34.5926 7.61111 34.1481 7.61111 33.7037ZM0.5 13.037C0.5 6.14815 5.90741 0.0740741 13.463 0C20.6481 0 26.5741 5.85185 26.5741 13.037C26.5741 16.3704 25.3148 19.3333 23.3148 21.6296C22.0556 23.037 20.2037 26 19.463 28.4444C19.463 28.4444 19.463 28.4444 19.463 28.5185H7.53704C7.53704 28.4444 7.53704 28.4444 7.53704 28.4444C6.7963 26 4.94444 23.037 3.68518 21.6296C1.68519 19.3333 0.5 16.3704 0.5 13.037ZM13.537 7.11111C14.1296 7.11111 14.7222 6.59259 14.7222 5.92593C14.7222 5.33333 14.1296 4.74074 13.537 4.74074C8.94444 4.74074 5.24074 8.51852 5.24074 13.037C5.24074 13.7037 5.75926 14.2222 6.42593 14.2222C7.01852 14.2222 7.61111 13.7037 7.61111 13.037C7.61111 9.77778 10.2037 7.11111 13.537 7.11111Z" fill="#8298AF"/>
</svg>
