<svg width="18" height="18" viewBox="0 0 25 24" fill="none" xmlns="http://www.w3.org/2000/svg">
<path d="M8.11792 16V17.25C8.11792 17.4667 8.18875 17.6458 8.33042 17.7875C8.47209 17.9292 8.65125 18 8.86792 18C9.08459 18 9.26375 17.9292 9.40542 17.7875C9.54709 17.6458 9.61792 17.4667 9.61792 17.25V16H10.8679C11.0846 16 11.2638 15.9292 11.4054 15.7875C11.5471 15.6458 11.6179 15.4667 11.6179 15.25C11.6179 15.0333 11.5471 14.8542 11.4054 14.7125C11.2638 14.5708 11.0846 14.5 10.8679 14.5H9.61792V13.25C9.61792 13.0333 9.54709 12.8542 9.40542 12.7125C9.26375 12.5708 9.08459 12.5 8.86792 12.5C8.65125 12.5 8.47209 12.5708 8.33042 12.7125C8.18875 12.8542 8.11792 13.0333 8.11792 13.25V14.5H6.86792C6.65125 14.5 6.47209 14.5708 6.33042 14.7125C6.18875 14.8542 6.11792 15.0333 6.11792 15.25C6.11792 15.4667 6.18875 15.6458 6.33042 15.7875C6.47209 15.9292 6.65125 16 6.86792 16H8.11792ZM13.8679 17.25H17.3679C17.5846 17.25 17.7638 17.1792 17.9054 17.0375C18.0471 16.8958 18.1179 16.7167 18.1179 16.5C18.1179 16.2833 18.0471 16.1042 17.9054 15.9625C17.7638 15.8208 17.5846 15.75 17.3679 15.75H13.8679C13.6513 15.75 13.4721 15.8208 13.3304 15.9625C13.1888 16.1042 13.1179 16.2833 13.1179 16.5C13.1179 16.7167 13.1888 16.8958 13.3304 17.0375C13.4721 17.1792 13.6513 17.25 13.8679 17.25ZM13.8679 14.75H17.3679C17.5846 14.75 17.7638 14.6792 17.9054 14.5375C18.0471 14.3958 18.1179 14.2167 18.1179 14C18.1179 13.7833 18.0471 13.6042 17.9054 13.4625C17.7638 13.3208 17.5846 13.25 17.3679 13.25H13.8679C13.6513 13.25 13.4721 13.3208 13.3304 13.4625C13.1888 13.6042 13.1179 13.7833 13.1179 14C13.1179 14.2167 13.1888 14.3958 13.3304 14.5375C13.4721 14.6792 13.6513 14.75 13.8679 14.75ZM15.6179 9.55L16.4929 10.425C16.6429 10.575 16.8179 10.65 17.0179 10.65C17.2179 10.65 17.3929 10.575 17.5429 10.425C17.6763 10.2917 17.7471 10.1208 17.7554 9.9125C17.7638 9.70417 17.7013 9.525 17.5679 9.375L16.6679 8.45L17.5429 7.575C17.6929 7.425 17.7679 7.25 17.7679 7.05C17.7679 6.85 17.6929 6.675 17.5429 6.525C17.3929 6.375 17.2179 6.3 17.0179 6.3C16.8179 6.3 16.6429 6.375 16.4929 6.525L15.6179 7.4L14.7429 6.525C14.5929 6.375 14.4179 6.3 14.2179 6.3C14.0179 6.3 13.8429 6.375 13.6929 6.525C13.5429 6.675 13.4679 6.85 13.4679 7.05C13.4679 7.25 13.5429 7.425 13.6929 7.575L14.5679 8.45L13.6679 9.375C13.5346 9.525 13.4679 9.7 13.4679 9.9C13.4679 10.1 13.5429 10.275 13.6929 10.425C13.8429 10.575 14.0179 10.65 14.2179 10.65C14.4179 10.65 14.5929 10.575 14.7429 10.425L15.6179 9.55ZM7.11792 9.2H10.6179C10.8346 9.2 11.0138 9.12917 11.1554 8.9875C11.2971 8.84583 11.3679 8.66667 11.3679 8.45C11.3679 8.23333 11.2971 8.05417 11.1554 7.9125C11.0138 7.77083 10.8346 7.7 10.6179 7.7H7.11792C6.90125 7.7 6.72209 7.77083 6.58042 7.9125C6.43875 8.05417 6.36792 8.23333 6.36792 8.45C6.36792 8.66667 6.43875 8.84583 6.58042 8.9875C6.72209 9.12917 6.90125 9.2 7.11792 9.2ZM5.11792 21C4.56792 21 4.09709 20.8042 3.70542 20.4125C3.31375 20.0208 3.11792 19.55 3.11792 19V5C3.11792 4.45 3.31375 3.97917 3.70542 3.5875C4.09709 3.19583 4.56792 3 5.11792 3H19.1179C19.6679 3 20.1388 3.19583 20.5304 3.5875C20.9221 3.97917 21.1179 4.45 21.1179 5V19C21.1179 19.55 20.9221 20.0208 20.5304 20.4125C20.1388 20.8042 19.6679 21 19.1179 21H5.11792ZM5.11792 19H19.1179V5H5.11792V19Z" fill="#FD7E14"/>
</svg>
