<svg width="42" height="39" viewBox="0 0 42 39" fill="none" xmlns="http://www.w3.org/2000/svg">
<path d="M16.0337 34.3152H16.0212V34.3277V34.9925C16.0212 35.5428 15.8094 36.0104 15.3851 36.396C14.9608 36.7816 14.4456 36.9744 13.8388 36.9744C13.232 36.9744 12.7168 36.7816 12.2924 36.396C11.8681 36.0104 11.6563 35.5428 11.6563 34.9925V25.4855C11.6563 25.3311 11.6684 25.1766 11.6927 25.0221C11.717 24.8677 11.7534 24.7245 11.8018 24.5924C11.8018 24.5924 11.8019 24.5924 11.8019 24.5923L14.5455 17.5122L14.5455 17.5122L14.5456 17.512C14.7397 16.9829 15.0915 16.5528 15.6015 16.2217C16.1116 15.8907 16.6823 15.7251 17.3141 15.7251H32.3131C32.9449 15.7251 33.5156 15.8907 34.0257 16.2217C34.5357 16.5528 34.8875 16.9829 35.0816 17.512L35.0817 17.5122L37.8253 24.5923C37.8253 24.5924 37.8254 24.5924 37.8254 24.5924C37.8738 24.7245 37.9102 24.8677 37.9345 25.0221C37.9588 25.1766 37.9709 25.3311 37.9709 25.4855V34.9925C37.9709 35.5428 37.7591 36.0104 37.3348 36.396C36.9104 36.7816 36.3952 36.9744 35.7884 36.9744C35.1816 36.9744 34.6664 36.7816 34.2421 36.396C33.8178 36.0104 33.606 35.5428 33.606 34.9925V34.3277V34.3152H33.5935H16.0337ZM15.7294 22.3564L15.7229 22.3734H15.7411H33.8861H33.9043L33.8978 22.3564L32.3613 18.3674L32.3582 18.3594H32.3497H17.2775H17.269L17.2659 18.3674L15.7294 22.3564ZM18.2287 30.3512C18.8413 30.3512 19.3626 30.1563 19.7919 29.7663C20.2212 29.3762 20.4362 28.902 20.4362 28.3443C20.4362 27.7866 20.2212 27.3123 19.7919 26.9223C19.3626 26.5322 18.8413 26.3373 18.2287 26.3373C17.6161 26.3373 17.0948 26.5322 16.6655 26.9223C16.2362 27.3123 16.0212 27.7866 16.0212 28.3443C16.0212 28.902 16.2362 29.3762 16.6655 29.7663C17.0948 30.1563 17.6161 30.3512 18.2287 30.3512ZM31.3985 30.3512C32.0111 30.3512 32.5324 30.1563 32.9617 29.7663C33.391 29.3762 33.606 28.902 33.606 28.3443C33.606 27.7866 33.391 27.3123 32.9617 26.9223C32.5324 26.5322 32.0111 26.3373 31.3985 26.3373C30.7859 26.3373 30.2646 26.5322 29.8353 26.9223C29.406 27.3123 29.191 27.7866 29.191 28.3443C29.191 28.902 29.406 29.3762 29.8353 29.7663C30.2646 30.1563 30.7859 30.3512 31.3985 30.3512Z" fill="#8298AF" stroke="#8298AF" stroke-width="0.025"/>
<path d="M4.55225 1.52979L4.55225 38" stroke="#8298AF" stroke-width="3"/>
<path d="M4.48572 17.7848L24.8133 2.54285" stroke="#8298AF" stroke-width="3"/>
<path d="M0.5 37.5109L41.0225 37.5109" stroke="#8298AF" stroke-width="1.2"/>
</svg>
