<svg width="25" height="24" viewBox="0 0 25 24" fill="none" xmlns="http://www.w3.org/2000/svg">
<path d="M12.2679 16.15C12.8179 16.15 13.2888 16.0208 13.6804 15.7625C14.0721 15.5042 14.2679 15.1 14.2679 14.55C14.2679 14.0667 14.0638 13.675 13.6554 13.375C13.2471 13.075 12.5179 12.7333 11.4679 12.35C10.4846 12 9.76375 11.5833 9.30542 11.1C8.84709 10.6167 8.61792 9.98333 8.61792 9.2C8.61792 8.51667 8.85542 7.89583 9.33042 7.3375C9.80542 6.77917 10.4513 6.41667 11.2679 6.25V5.875C11.2679 5.64167 11.3554 5.4375 11.5304 5.2625C11.7054 5.0875 11.9096 5 12.1429 5C12.3763 5 12.5804 5.0875 12.7554 5.2625C12.9304 5.4375 13.0179 5.64167 13.0179 5.875V6.25C13.5013 6.28333 13.9471 6.44583 14.3554 6.7375C14.7638 7.02917 15.0929 7.38333 15.3429 7.8C15.4596 7.98333 15.4679 8.17917 15.3679 8.3875C15.2679 8.59583 15.1013 8.74167 14.8679 8.825C14.6513 8.90833 14.4346 8.91667 14.2179 8.85C14.0013 8.78333 13.8263 8.65833 13.6929 8.475C13.5263 8.275 13.3179 8.1125 13.0679 7.9875C12.8179 7.8625 12.5179 7.8 12.1679 7.8C11.5846 7.8 11.1388 7.925 10.8304 8.175C10.5221 8.425 10.3679 8.76667 10.3679 9.2C10.3679 9.63333 10.5596 9.975 10.9429 10.225C11.3263 10.475 12.0179 10.7667 13.0179 11.1C14.2179 11.5333 15.0179 12.0417 15.4179 12.625C15.8179 13.2083 16.0179 13.85 16.0179 14.55C16.0179 15.0333 15.9346 15.4583 15.7679 15.825C15.6013 16.1917 15.3804 16.5042 15.1054 16.7625C14.8304 17.0208 14.5096 17.2292 14.1429 17.3875C13.7763 17.5458 13.3846 17.6667 12.9679 17.75V18.125C12.9679 18.3583 12.8804 18.5625 12.7054 18.7375C12.5304 18.9125 12.3263 19 12.0929 19C11.8596 19 11.6554 18.9125 11.4804 18.7375C11.3054 18.5625 11.2179 18.3583 11.2179 18.125V17.7C10.5846 17.5667 10.0429 17.3167 9.59292 16.95C9.14292 16.5833 8.78459 16.1167 8.51792 15.55C8.41792 15.3167 8.42209 15.0917 8.53042 14.875C8.63875 14.6583 8.80959 14.5083 9.04292 14.425C9.25959 14.3417 9.47625 14.3458 9.69292 14.4375C9.90959 14.5292 10.0763 14.675 10.1929 14.875C10.4263 15.3083 10.7221 15.6292 11.0804 15.8375C11.4388 16.0458 11.8346 16.15 12.2679 16.15ZM12.1179 23C10.2513 23 8.53459 22.575 6.96792 21.725C5.40125 20.875 4.11792 19.7417 3.11792 18.325V20C3.11792 20.2833 3.02209 20.5208 2.83042 20.7125C2.63875 20.9042 2.40125 21 2.11792 21C1.83459 21 1.59709 20.9042 1.40542 20.7125C1.21375 20.5208 1.11792 20.2833 1.11792 20V16C1.11792 15.7167 1.21375 15.4792 1.40542 15.2875C1.59709 15.0958 1.83459 15 2.11792 15H6.11792C6.40125 15 6.63875 15.0958 6.83042 15.2875C7.02209 15.4792 7.11792 15.7167 7.11792 16C7.11792 16.2833 7.02209 16.5208 6.83042 16.7125C6.63875 16.9042 6.40125 17 6.11792 17H4.64292C5.44292 18.2 6.49709 19.1667 7.80542 19.9C9.11375 20.6333 10.5513 21 12.1179 21C14.4679 21 16.4888 20.2167 18.1804 18.65C19.8721 17.0833 20.8346 15.1583 21.0679 12.875C21.1013 12.6083 21.2179 12.3958 21.4179 12.2375C21.6179 12.0792 21.8513 12 22.1179 12C22.4013 12 22.6429 12.0875 22.8429 12.2625C23.0429 12.4375 23.1263 12.65 23.0929 12.9C22.9763 14.3167 22.6096 15.6375 21.9929 16.8625C21.3763 18.0875 20.5763 19.1542 19.5929 20.0625C18.6096 20.9708 17.4804 21.6875 16.2054 22.2125C14.9304 22.7375 13.5679 23 12.1179 23ZM12.1179 3C9.76792 3 7.74709 3.78333 6.05542 5.35C4.36375 6.91667 3.40125 8.84167 3.16792 11.125C3.13459 11.3917 3.01792 11.6042 2.81792 11.7625C2.61792 11.9208 2.38459 12 2.11792 12C1.83459 12 1.59292 11.9125 1.39292 11.7375C1.19292 11.5625 1.10959 11.35 1.14292 11.1C1.25959 9.68333 1.62625 8.3625 2.24292 7.1375C2.85959 5.9125 3.65959 4.84583 4.64292 3.9375C5.62625 3.02917 6.75542 2.3125 8.03042 1.7875C9.30542 1.2625 10.6679 1 12.1179 1C13.9846 1 15.7013 1.425 17.2679 2.275C18.8346 3.125 20.1179 4.25833 21.1179 5.675V4C21.1179 3.71667 21.2138 3.47917 21.4054 3.2875C21.5971 3.09583 21.8346 3 22.1179 3C22.4013 3 22.6388 3.09583 22.8304 3.2875C23.0221 3.47917 23.1179 3.71667 23.1179 4V8C23.1179 8.28333 23.0221 8.52083 22.8304 8.7125C22.6388 8.90417 22.4013 9 22.1179 9H18.1179C17.8346 9 17.5971 8.90417 17.4054 8.7125C17.2138 8.52083 17.1179 8.28333 17.1179 8C17.1179 7.71667 17.2138 7.47917 17.4054 7.2875C17.5971 7.09583 17.8346 7 18.1179 7H19.5929C18.7929 5.8 17.7388 4.83333 16.4304 4.1C15.1221 3.36667 13.6846 3 12.1179 3Z" fill="#28A745"/>
</svg>
