<svg width="21" height="38" viewBox="0 0 21 38" fill="none" xmlns="http://www.w3.org/2000/svg">
<path fill-rule="evenodd" clip-rule="evenodd" d="M2.32271 0.435622V2.06646C2.32271 2.30705 3.58954 2.50208 5.15225 2.50208H15.7452C17.3079 2.50208 18.5748 2.30705 18.5748 2.06646V0.435622C18.5748 0.195035 17.3079 0 15.7452 0H5.15225C3.58954 0 2.32271 0.195035 2.32271 0.435622ZM3.43416 34.8689H17.4633H17.4658H17.8719C18.4343 34.8689 18.8944 35.5734 18.8944 36.4344C18.8944 37.2956 18.4343 38 17.8719 38H3.0281C2.4657 38 2.00549 37.2956 2.00549 36.4345C2.00549 35.5734 2.4657 34.8689 3.0281 34.8689H3.42923H3.43416ZM5.47929 8.44106V3.15147H3.62592C3.56118 3.15147 3.49727 3.14831 3.43417 3.14244V8.44106H5.47929ZM17.4658 3.14244V8.44106H15.4207V3.15147H17.2741C17.3388 3.15147 17.4027 3.14831 17.4658 3.14244ZM11.9806 6.91096C12.4178 6.91096 12.7723 6.57066 12.7723 6.15095C12.7723 5.73123 12.4178 5.39093 11.9806 5.39093H10.45H8.91946C8.48225 5.39093 8.12778 5.73123 8.12778 6.15095C8.12778 6.57066 8.48225 6.91096 8.91946 6.91096H9.65835V8.44107H11.2417V6.91096H11.9806ZM17.4658 9.08956C19.3546 9.08956 20.9 10.5731 20.9 12.3864V30.9235C20.9 32.7368 19.3546 34.2203 17.4658 34.2203H17.4633H3.43416H3.42923C1.54263 34.2177 0 32.7352 0 30.9235V12.3864C0 10.5731 1.54537 9.08956 3.43416 9.08956H5.47928H9.65837H11.2417H15.4207H17.4658ZM0.554222 21.375C0.554222 20.588 1.2188 19.95 2.03859 19.95H18.8614C19.6812 19.95 20.3458 20.588 20.3458 21.375C20.3458 22.162 19.6812 22.8 18.8614 22.8H2.03859C1.2188 22.8 0.554222 22.162 0.554222 21.375Z" fill="#8298AF"/>
</svg>
