<svg width="31" height="31" viewBox="0 0 31 31" fill="none" xmlns="http://www.w3.org/2000/svg">
<path d="M15.4545 30.9091C13.3167 30.9091 11.3076 30.5034 9.42727 29.692C7.54697 28.8807 5.91136 27.7795 4.52045 26.3886C3.12955 24.9977 2.02841 23.3621 1.21705 21.4818C0.405682 19.6015 0 17.5924 0 15.4545C0 13.3167 0.405682 11.3076 1.21705 9.42727C2.02841 7.54697 3.12955 5.91136 4.52045 4.52045C5.91136 3.12955 7.54697 2.02841 9.42727 1.21705C11.3076 0.405682 13.3167 0 15.4545 0C15.7121 0 15.9955 0.00643939 16.3045 0.0193182C16.6136 0.032197 16.897 0.0515152 17.1545 0.0772727C17.5924 0.128788 17.9273 0.309091 18.1591 0.618182C18.3909 0.927273 18.5068 1.31364 18.5068 1.77727C18.5068 2.21515 18.3652 2.56932 18.0818 2.83977C17.7985 3.11023 17.4379 3.2197 17 3.16818C16.7424 3.14242 16.4848 3.13598 16.2273 3.14886C15.9697 3.16174 15.7121 3.16818 15.4545 3.16818C14.7848 4.09545 14.2053 5.0678 13.7159 6.08523C13.2265 7.10265 12.8273 8.16515 12.5182 9.27273H15.4545C15.8924 9.27273 16.2595 9.42083 16.5557 9.71704C16.8519 10.0133 17 10.3803 17 10.8182C17 11.2561 16.8519 11.6231 16.5557 11.9193C16.2595 12.2155 15.8924 12.3636 15.4545 12.3636H11.8227C11.7455 12.8788 11.6875 13.3939 11.6489 13.9091C11.6102 14.4242 11.5909 14.9394 11.5909 15.4545C11.5909 15.9697 11.6102 16.4848 11.6489 17C11.6875 17.5152 11.7455 18.0303 11.8227 18.5455H19.0864C19.1636 18.0303 19.2216 17.5152 19.2602 17C19.2989 16.4848 19.3182 15.9697 19.3182 15.4545V14.7205C19.3182 14.4886 19.3053 14.2439 19.2795 13.9864C19.228 13.5742 19.3504 13.2008 19.6466 12.8659C19.9428 12.5311 20.297 12.3636 20.7091 12.3636C21.147 12.3636 21.5205 12.4924 21.8295 12.75C22.1386 13.0076 22.3189 13.3553 22.3705 13.7932C22.3962 14.0508 22.4091 14.3277 22.4091 14.6239V15.4545C22.4091 15.9697 22.3898 16.4848 22.3511 17C22.3125 17.5152 22.2545 18.0303 22.1773 18.5455H27.4318C27.5606 18.0303 27.6572 17.5152 27.7216 17C27.786 16.4848 27.8182 15.9697 27.8182 15.4545V14.7591C27.8182 14.553 27.7924 14.3212 27.7409 14.0636C27.6894 13.6515 27.8053 13.2652 28.0886 12.9045C28.372 12.5439 28.7197 12.3636 29.1318 12.3636C29.5955 12.3636 29.9818 12.486 30.2909 12.7307C30.6 12.9754 30.7803 13.3167 30.8318 13.7545C30.8576 14.0121 30.8769 14.2955 30.8898 14.6045C30.9027 14.9136 30.9091 15.197 30.9091 15.4545C30.9091 17.5924 30.5034 19.6015 29.692 21.4818C28.8807 23.3621 27.7795 24.9977 26.3886 26.3886C24.9977 27.7795 23.3621 28.8807 21.4818 29.692C19.6015 30.5034 17.5924 30.9091 15.4545 30.9091ZM3.47727 18.5455H8.73182C8.65455 18.0303 8.59659 17.5152 8.55795 17C8.51932 16.4848 8.5 15.9697 8.5 15.4545C8.5 14.9394 8.51932 14.4242 8.55795 13.9091C8.59659 13.3939 8.65455 12.8788 8.73182 12.3636H3.47727C3.34848 12.8788 3.25189 13.3939 3.1875 13.9091C3.12311 14.4242 3.09091 14.9394 3.09091 15.4545C3.09091 15.9697 3.12311 16.4848 3.1875 17C3.25189 17.5152 3.34848 18.0303 3.47727 18.5455ZM4.79091 9.27273H9.35C9.58182 8.3197 9.87159 7.38598 10.2193 6.47159C10.567 5.5572 10.9727 4.66212 11.4364 3.78636C10.0197 4.25 8.7447 4.95189 7.61136 5.89205C6.47803 6.8322 5.53788 7.95909 4.79091 9.27273ZM11.4364 27.1227C10.9727 26.247 10.567 25.3519 10.2193 24.4375C9.87159 23.5231 9.58182 22.5894 9.35 21.6364H4.79091C5.53788 22.95 6.47803 24.0769 7.61136 25.017C8.7447 25.9572 10.0197 26.6591 11.4364 27.1227ZM15.4545 27.7409C16.1242 26.8136 16.7038 25.8413 17.1932 24.8239C17.6826 23.8064 18.0818 22.7439 18.3909 21.6364H12.5182C12.8273 22.7439 13.2265 23.8064 13.7159 24.8239C14.2053 25.8413 14.7848 26.8136 15.4545 27.7409ZM19.4727 27.1227C20.8894 26.6591 22.1644 25.9572 23.2977 25.017C24.4311 24.0769 25.3712 22.95 26.1182 21.6364H21.5591C21.3273 22.5894 21.0375 23.5231 20.6898 24.4375C20.342 25.3519 19.9364 26.247 19.4727 27.1227Z" fill="#8298AF"/>
</svg>
