<svg width="28" height="30" viewBox="0 0 28 30" fill="none" xmlns="http://www.w3.org/2000/svg">
<path d="M0 26.5714V11.1429C0 10.6 0.123326 10.0857 0.369978 9.6C0.616629 9.11429 0.957589 8.71428 1.39286 8.4L11.8393 0.685714C12.4487 0.228571 13.1451 0 13.9286 0C14.7121 0 15.4085 0.228571 16.0179 0.685714L26.4643 8.4C26.8996 8.71428 27.2405 9.11429 27.4872 9.6C27.7338 10.0857 27.8571 10.6 27.8571 11.1429V26.5714C27.8571 27.5143 27.5162 28.3214 26.8343 28.9929C26.1523 29.6643 25.3326 30 24.375 30H19.1518C18.6585 30 18.245 29.8357 17.9113 29.5071C17.5776 29.1786 17.4107 28.7714 17.4107 28.2857V19.7143C17.4107 19.2286 17.2439 18.8214 16.9102 18.4929C16.5765 18.1643 16.1629 18 15.6696 18H12.1875C11.6942 18 11.2807 18.1643 10.947 18.4929C10.6133 18.8214 10.4464 19.2286 10.4464 19.7143V28.2857C10.4464 28.7714 10.2796 29.1786 9.94587 29.5071C9.61216 29.8357 9.19866 30 8.70536 30H3.48214C2.52455 30 1.7048 29.6643 1.02288 28.9929C0.34096 28.3214 0 27.5143 0 26.5714Z" fill="#8298AF"/>
</svg>
