<svg width="40" height="36" viewBox="0 0 40 36" fill="none" xmlns="http://www.w3.org/2000/svg">
<path fill-rule="evenodd" clip-rule="evenodd" d="M35.575 16.2592L35.3914 11.498C35.3332 9.98956 37.68 9.7773 37.9179 11.2705L39.1505 19.01C39.3943 20.541 38.9872 21.9739 37.8909 23.0703L31.5967 29.3645C31.0694 29.8918 30.8222 30.5524 30.8736 31.2962L30.8818 31.4131H22.5759L22.6222 27.5425C22.6366 26.3431 23.0497 25.3107 23.8979 24.4625L25.639 22.7214C26.2044 22.156 26.8192 21.801 27.5916 21.5941L28.434 21.3684L32.6729 17.1295C33.3529 16.4496 34.4654 16.4496 35.1453 17.1295C35.4575 17.4417 35.6118 17.8181 35.6498 18.2287C35.6812 18.731 35.5266 19.2205 35.1453 19.6018C33.9406 20.8065 32.7359 22.0111 31.5313 23.2158C31.3482 23.3989 31.3482 23.6957 31.5313 23.8787C31.7143 24.0618 32.0111 24.0618 32.1942 23.8787L35.8082 20.2647C36.9406 19.1323 36.8327 17.2538 35.575 16.2592ZM4.42505 16.2592L4.60856 11.498C4.66677 9.98956 2.32005 9.7773 2.08216 11.2705L0.8495 19.01C0.605672 20.541 1.01278 21.9739 2.10911 23.0703L8.40333 29.3645C8.93059 29.8918 9.17786 30.5524 9.12637 31.2962L9.11825 31.4131H17.4241L17.3778 27.5425C17.3634 26.3431 16.9503 25.3107 16.1021 24.4625L14.361 22.7214C13.7956 22.156 13.1808 21.801 12.4084 21.5941L11.566 21.3684L7.327 17.1295C6.64708 16.4496 5.53458 16.4496 4.85466 17.1295C4.54247 17.4417 4.38809 17.8181 4.35013 18.2287C4.31872 18.731 4.47333 19.2205 4.85466 19.6018C6.05934 20.8065 7.26403 22.0111 8.46864 23.2158C8.65169 23.3989 8.65169 23.6957 8.46864 23.8787C8.28559 24.0618 7.9888 24.0618 7.80567 23.8787C6.60098 22.674 5.39638 21.4694 4.19169 20.2647C3.05927 19.1323 3.16731 17.2538 4.42505 16.2592ZM18.9567 34.9868C18.9567 35.5391 18.509 35.9868 17.9567 35.9868H8.53208C7.97979 35.9868 7.53208 35.5391 7.53208 34.9868V33.3507C7.53208 32.7984 7.97979 32.3507 8.53208 32.3507H17.9567C18.509 32.3507 18.9567 32.7984 18.9567 33.3507V34.9868ZM19.5629 21.606C19.8344 21.7439 20.1656 21.7439 20.437 21.606C29.3246 17.0924 29.2021 9.817 29.171 4.38009C29.1678 3.82658 28.7186 3.38084 28.1663 3.34349C25.5919 3.16938 22.7992 2.32468 20.7452 0.67937C20.3141 0.33409 19.686 0.33409 19.2549 0.679371C17.2009 2.32468 14.4082 3.16938 11.8337 3.34349C11.2815 3.38084 10.8323 3.82658 10.8291 4.38009C10.798 9.817 10.6754 17.0924 19.5629 21.606ZM15.6835 11.7288L18.1175 15.0393C18.6193 15.7229 19.6239 15.6856 20.1029 15.0181L24.3962 9.1787C24.7949 8.6348 24.6772 7.87066 24.1332 7.47191C23.5893 7.07324 22.8252 7.19097 22.4265 7.73488L19.1025 12.256L17.6533 10.285C17.2547 9.74105 16.4904 9.62331 15.9466 10.022C15.4027 10.4207 15.2848 11.1849 15.6835 11.7288ZM21.0433 34.9868C21.0433 35.5391 21.491 35.9868 22.0433 35.9868H31.4679C32.0201 35.9868 32.4679 35.5391 32.4679 34.9868V33.3507C32.4679 32.7984 32.0201 32.3507 31.4679 32.3507H22.0433C21.491 32.3507 21.0433 32.7984 21.0433 33.3506L21.0433 34.9868Z" fill="#8298AF"/>
</svg>
