<svg width="260" height="54" viewBox="0 0 260 54" fill="none" xmlns="http://www.w3.org/2000/svg">
<path d="M11.2522 18.6375H15.639C16.4949 18.6375 17.1887 17.9437 17.1887 17.0878C17.1887 16.2319 16.4949 15.5381 15.639 15.5381H11.2522C10.553 15.5381 9.98633 16.1048 9.98633 16.8039V17.3715C9.98618 18.0708 10.553 18.6375 11.2522 18.6375Z" fill="#FF7A2F"/>
<path d="M44.431 11.7393C40.3926 11.5733 36.6987 13.0429 33.9547 15.5386H21.8893C21.036 15.5386 20.3042 16.2061 20.2885 17.0592C20.2726 17.9283 20.9725 18.6379 21.8379 18.6379H31.3675H34.9615C35.8148 18.6379 36.5466 19.3055 36.5623 20.1586C36.5782 21.0277 35.8783 21.7373 35.0129 21.7373H32.1634H32.1632H2.21497C1.47924 21.7373 0.882812 22.3337 0.882812 23.0695V23.5045C0.882812 24.2403 1.47924 24.8367 2.21497 24.8367H29.2349H34.9613C35.8146 24.8367 36.5464 25.5042 36.5621 26.3574C36.5781 27.2265 35.8782 27.9361 35.0127 27.9361H32.459H29.2349H26.7826C25.9293 27.9361 25.1975 28.6036 25.1818 29.4567C25.166 30.3258 25.8658 31.0355 26.7312 31.0355H29.9065H32.459H34.2343C35.0874 31.0355 35.8194 31.7028 35.8351 32.556C35.851 33.4251 35.1514 34.1345 34.286 34.1348H25.1816C24.3257 34.1348 23.632 34.8286 23.632 35.6844C23.632 36.5403 24.3258 37.2341 25.1817 37.2341H33.9547C36.558 39.6019 40.0166 41.0461 43.8131 41.0461C51.9785 41.0461 58.5847 34.3702 58.4712 26.1787C58.3638 18.4391 52.1641 12.0571 44.431 11.7393ZM48.7968 32.0633C48.4683 32.7288 48.0233 33.2839 47.4617 33.7289C46.9 34.174 46.2434 34.5089 45.4915 34.7336C45.2984 34.7912 45.1019 34.8414 44.9019 34.8842V36.753C44.9019 37.4777 44.3143 38.0653 43.5896 38.0653C42.8649 38.0653 42.2773 37.4777 42.2773 36.753V35.0373C42.2773 35.0373 42.2789 35.0375 42.2797 35.0375C41.9976 35.0137 41.7265 34.9774 41.4669 34.9276C40.9699 34.8324 40.5315 34.7182 40.1513 34.5841C39.7709 34.4503 39.4534 34.31 39.1986 34.1628C38.9436 34.016 38.7599 33.8865 38.6477 33.7741C38.5352 33.6619 38.4553 33.4998 38.408 33.2879C38.3604 33.0764 38.3367 32.7718 38.3367 32.3741C38.3367 32.1064 38.3453 31.8815 38.3626 31.7001C38.3798 31.5185 38.408 31.3717 38.4469 31.2594C38.4858 31.147 38.5376 31.0671 38.6024 31.0196C38.6673 30.9722 38.7428 30.9484 38.8293 30.9484C38.9501 30.9484 39.1209 31.0196 39.3412 31.1623C39.5615 31.3048 39.8445 31.4627 40.1901 31.6354C40.5357 31.8083 40.9484 31.9658 41.428 32.1084C41.9076 32.2509 42.4627 32.3223 43.0936 32.3223C43.5084 32.3223 43.8799 32.2727 44.2084 32.1733C44.5366 32.074 44.8154 31.9336 45.0444 31.752C45.2733 31.5706 45.4483 31.346 45.5693 31.0781C45.6902 30.8104 45.7508 30.5123 45.7508 30.1836C45.7508 29.8036 45.6471 29.4772 45.4397 29.205C45.2323 28.9327 44.9621 28.691 44.6295 28.4791C44.2968 28.2675 43.9187 28.0689 43.4954 27.8828C43.072 27.6971 42.6355 27.5004 42.1864 27.2931C41.7369 27.0856 41.3006 26.8503 40.8773 26.5866C40.4537 26.3233 40.0756 26.0079 39.743 25.6405C39.4103 25.2732 39.1402 24.839 38.933 24.3378C38.7256 23.8367 38.6219 23.2361 38.6219 22.5362C38.6219 21.7325 38.7709 21.0261 39.069 20.4169C39.3671 19.8077 39.7689 19.3021 40.2745 18.9003C40.7799 18.4985 41.3762 18.1984 42.0632 17.9994C42.1341 17.979 42.2055 17.9598 42.2773 17.9414V16.0189C42.2773 15.294 42.8649 14.7066 43.5896 14.7066C44.3143 14.7066 44.9019 15.294 44.9019 16.0189V17.7291C45.0811 17.744 45.2603 17.7648 45.4397 17.7921C45.837 17.8526 46.2087 17.9346 46.5545 18.0383C46.9 18.1419 47.2068 18.2587 47.4748 18.3883C47.7425 18.5179 47.9197 18.626 48.0062 18.7124C48.0926 18.7989 48.1508 18.8724 48.1812 18.9328C48.2114 18.9935 48.2374 19.0734 48.259 19.1725C48.2805 19.2719 48.2956 19.3973 48.3043 19.5484C48.3129 19.6997 48.3173 19.8875 48.3173 20.1122C48.3173 20.3629 48.3108 20.5745 48.2979 20.7473C48.285 20.9203 48.2632 21.0628 48.233 21.175C48.2027 21.2875 48.1596 21.3694 48.1034 21.4213C48.0471 21.4732 47.9717 21.499 47.8766 21.499C47.7814 21.499 47.6304 21.4387 47.423 21.3176C47.2156 21.1968 46.9607 21.065 46.6582 20.9223C46.3557 20.7798 46.0057 20.6503 45.6083 20.5336C45.2107 20.4169 44.7743 20.3586 44.2992 20.3586C43.9276 20.3586 43.6036 20.4038 43.3271 20.4947C43.0505 20.5855 42.8194 20.7109 42.6336 20.8707C42.4477 21.0307 42.3096 21.2229 42.2189 21.4474C42.1282 21.6722 42.0827 21.9097 42.0827 22.1603C42.0827 22.532 42.1842 22.8537 42.3873 23.1259C42.5902 23.3982 42.8624 23.6402 43.2039 23.8518C43.5452 24.0637 43.9318 24.2623 44.364 24.4481C44.796 24.634 45.2367 24.8305 45.686 25.0378C46.1352 25.2452 46.5758 25.4807 47.0081 25.7441C47.4401 26.0079 47.8247 26.3233 48.1616 26.6903C48.4986 27.0577 48.7708 27.4897 48.9782 27.9864C49.1856 28.4835 49.2893 29.0687 49.2893 29.7428C49.2893 30.6245 49.1251 31.398 48.7968 32.0633Z" fill="#FF7A2F"/>
<path d="M43.6942 0C30.879 0 20.1492 8.92809 17.3853 20.9036H20.7783C20.9139 20.3922 21.065 19.8869 21.2333 19.3898C20.2119 19.1212 19.4552 18.1924 19.4552 17.0878C19.4552 15.7739 20.5242 14.705 21.838 14.705H23.4186C27.5769 7.86208 35.1018 3.29122 43.6942 3.29122C56.7881 3.29122 67.4028 13.9058 67.4028 26.9999C67.4028 40.0939 56.788 50.7086 43.6942 50.7086C32.2688 50.7086 22.732 42.6264 20.4867 31.8677H17.1328C19.4249 44.4559 30.4446 54 43.6942 54C58.6059 54 70.6941 41.9117 70.6941 27.0001C70.6941 12.0883 58.6059 0 43.6942 0Z" fill="#FF7A2F"/>
<path d="M20.5332 27.9355H14.8055C14.2333 27.9355 13.7695 28.3993 13.7695 28.9715V29.9988C13.7695 30.571 14.2335 31.0348 14.8055 31.0348H20.5332C21.3891 31.0348 22.0829 30.341 22.0829 29.4851C22.0829 28.6292 21.389 27.9355 20.5332 27.9355Z" fill="#FF7A2F"/>
<path d="M258.57 11.375V19.1875H238.805V11.375H258.57ZM242.633 4.1875H253.414V31.7266C253.414 32.1432 253.486 32.4948 253.629 32.7812C253.772 33.0547 253.993 33.263 254.293 33.4062C254.592 33.5365 254.977 33.6016 255.445 33.6016C255.771 33.6016 256.148 33.5625 256.578 33.4844C257.021 33.4062 257.346 33.3411 257.555 33.2891L259.117 40.8672C258.635 41.0104 257.945 41.1862 257.047 41.3945C256.161 41.6029 255.107 41.7396 253.883 41.8047C251.409 41.9349 249.332 41.681 247.652 41.043C245.973 40.3919 244.71 39.3698 243.863 37.9766C243.017 36.5833 242.607 34.8385 242.633 32.7422V4.1875Z" fill="black"/>
<path d="M221.594 41.9219C218.391 41.9219 215.63 41.3099 213.312 40.0859C211.008 38.849 209.23 37.0781 207.98 34.7734C206.743 32.4557 206.125 29.6823 206.125 26.4531C206.125 23.3542 206.75 20.6458 208 18.3281C209.25 16.0104 211.014 14.207 213.293 12.918C215.572 11.6289 218.26 10.9844 221.359 10.9844C223.625 10.9844 225.676 11.3359 227.512 12.0391C229.348 12.7422 230.917 13.7643 232.219 15.1055C233.521 16.4336 234.523 18.0482 235.227 19.9492C235.93 21.8503 236.281 23.9922 236.281 26.375V28.875H209.484V22.9375H226.359C226.346 22.0781 226.125 21.3229 225.695 20.6719C225.279 20.0078 224.712 19.4935 223.996 19.1289C223.293 18.7513 222.492 18.5625 221.594 18.5625C220.721 18.5625 219.921 18.7513 219.191 19.1289C218.462 19.4935 217.876 20.0013 217.434 20.6523C217.004 21.3034 216.776 22.0651 216.75 22.9375V29.3438C216.75 30.3073 216.952 31.1667 217.355 31.9219C217.759 32.6771 218.339 33.2695 219.094 33.6992C219.849 34.1289 220.76 34.3438 221.828 34.3438C222.57 34.3438 223.247 34.2396 223.859 34.0312C224.484 33.8229 225.018 33.5234 225.461 33.1328C225.904 32.7292 226.229 32.2474 226.438 31.6875H236.281C235.943 33.7708 235.142 35.5807 233.879 37.1172C232.616 38.6406 230.943 39.8255 228.859 40.6719C226.789 41.5052 224.367 41.9219 221.594 41.9219Z" fill="black"/>
<path d="M191.213 1.375H201.916V28.7969C201.903 31.401 201.246 33.6927 199.944 35.6719C198.654 37.638 196.871 39.1745 194.592 40.2812C192.326 41.375 189.716 41.9219 186.76 41.9219C184.195 41.9219 181.851 41.4792 179.729 40.5938C177.606 39.6953 175.914 38.2891 174.651 36.375C173.388 34.4479 172.763 31.9479 172.776 28.875H183.635C183.674 29.8776 183.843 30.724 184.143 31.4141C184.455 32.1042 184.885 32.625 185.432 32.9766C185.992 33.3151 186.669 33.4844 187.463 33.4844C188.27 33.4844 188.947 33.3086 189.494 32.957C190.054 32.6055 190.477 32.0846 190.764 31.3945C191.05 30.6914 191.2 29.8255 191.213 28.7969V1.375Z" fill="black"/>
<path d="M151.584 52.625C150.347 52.625 149.169 52.5273 148.049 52.332C146.929 52.1497 145.946 51.8958 145.1 51.5703L147.443 43.9141C148.329 44.2266 149.136 44.4284 149.865 44.5195C150.607 44.6107 151.239 44.5586 151.76 44.3633C152.294 44.168 152.678 43.7969 152.912 43.25L153.146 42.7031L142.6 11.375H153.85L158.693 32.1562H159.006L163.928 11.375H175.256L164.318 43.875C163.771 45.5286 162.977 47.013 161.936 48.3281C160.907 49.6562 159.553 50.7044 157.873 51.4727C156.193 52.2409 154.097 52.625 151.584 52.625Z" fill="black"/>
<path d="M121.961 41.8438C120.047 41.8438 118.354 41.5312 116.883 40.9062C115.424 40.2682 114.279 39.3047 113.445 38.0156C112.612 36.7266 112.195 35.0859 112.195 33.0938C112.195 31.4531 112.475 30.0534 113.035 28.8945C113.595 27.7227 114.376 26.7656 115.379 26.0234C116.382 25.2812 117.547 24.7148 118.875 24.3242C120.216 23.9336 121.661 23.6797 123.211 23.5625C124.891 23.4323 126.238 23.276 127.254 23.0938C128.283 22.8984 129.025 22.6315 129.48 22.293C129.936 21.9414 130.164 21.4792 130.164 20.9062V20.8281C130.164 20.0469 129.865 19.4479 129.266 19.0312C128.667 18.6146 127.898 18.4062 126.961 18.4062C125.932 18.4062 125.092 18.6341 124.441 19.0898C123.803 19.5326 123.419 20.2161 123.289 21.1406H113.367C113.497 19.3177 114.077 17.638 115.105 16.1016C116.147 14.5521 117.664 13.3151 119.656 12.3906C121.648 11.4531 124.135 10.9844 127.117 10.9844C129.266 10.9844 131.193 11.2383 132.898 11.7461C134.604 12.2409 136.056 12.9375 137.254 13.8359C138.452 14.7214 139.363 15.763 139.988 16.9609C140.626 18.1458 140.945 19.4349 140.945 20.8281V41.375H130.867V37.1562H130.633C130.034 38.276 129.305 39.181 128.445 39.8711C127.599 40.5612 126.629 41.0625 125.535 41.375C124.454 41.6875 123.263 41.8438 121.961 41.8438ZM125.477 35.0469C126.297 35.0469 127.065 34.8776 127.781 34.5391C128.51 34.2005 129.103 33.7122 129.559 33.0742C130.014 32.4362 130.242 31.6615 130.242 30.75V28.25C129.956 28.3672 129.65 28.4779 129.324 28.582C129.012 28.6862 128.673 28.7839 128.309 28.875C127.957 28.9661 127.579 29.0508 127.176 29.1289C126.785 29.207 126.375 29.2786 125.945 29.3438C125.112 29.474 124.428 29.6888 123.895 29.9883C123.374 30.2747 122.983 30.6328 122.723 31.0625C122.475 31.4792 122.352 31.9479 122.352 32.4688C122.352 33.3021 122.645 33.9401 123.23 34.3828C123.816 34.8255 124.565 35.0469 125.477 35.0469Z" fill="black"/>
<path d="M78.6934 41.375V1.375H95.959C98.9277 1.375 101.525 1.96094 103.752 3.13281C105.979 4.30469 107.71 5.95182 108.947 8.07422C110.184 10.1966 110.803 12.6771 110.803 15.5156C110.803 18.3802 110.165 20.8607 108.889 22.957C107.626 25.0534 105.848 26.668 103.557 27.8008C101.278 28.9336 98.6152 29.5 95.5684 29.5H85.2559V21.0625H93.3809C94.6569 21.0625 95.7441 20.8411 96.6426 20.3984C97.554 19.9427 98.2507 19.2982 98.7324 18.4648C99.2272 17.6315 99.4746 16.6484 99.4746 15.5156C99.4746 14.3698 99.2272 13.3932 98.7324 12.5859C98.2507 11.7656 97.554 11.1406 96.6426 10.7109C95.7441 10.2682 94.6569 10.0469 93.3809 10.0469H89.5527V41.375H78.6934Z" fill="black"/>
</svg>
