<svg width="27" height="31" viewBox="0 0 27 31" fill="none" xmlns="http://www.w3.org/2000/svg">
<path d="M26.795 6.375V21.375C26.795 24.4219 23.1622 27 19.1192 27L22.8106 29.9297C23.1622 30.2227 22.9864 30.75 22.5763 30.75H4.76377C4.29502 30.75 4.11924 30.2227 4.4708 29.9297L8.16221 27C4.11924 27 0.545019 24.4219 0.545019 21.375V6.375C0.545019 3.26953 4.29502 0.75 8.04502 0.75H19.295C23.1036 0.75 26.795 3.26953 26.795 6.375ZM12.2638 14.3438V7.78125C12.2638 7.01953 11.6192 6.375 10.8575 6.375H4.76377C3.94346 6.375 3.35752 7.01953 3.35752 7.78125V14.3438C3.35752 15.1641 3.94346 15.75 4.76377 15.75H10.8575C11.6192 15.75 12.2638 15.1641 12.2638 14.3438ZM23.9825 14.3438V7.78125C23.9825 7.01953 23.338 6.375 22.5763 6.375H16.4825C15.6622 6.375 15.0763 7.01953 15.0763 7.78125V14.3438C15.0763 15.1641 15.6622 15.75 16.4825 15.75H22.5763C23.338 15.75 23.9825 15.1641 23.9825 14.3438ZM21.17 17.625C19.588 17.625 18.3575 18.9141 18.3575 20.4375C18.3575 22.0195 19.588 23.25 21.17 23.25C22.6935 23.25 23.9825 22.0195 23.9825 20.4375C23.9825 18.9141 22.6935 17.625 21.17 17.625ZM6.17002 17.625C4.58799 17.625 3.35752 18.9141 3.35752 20.4375C3.35752 22.0195 4.58799 23.25 6.17002 23.25C7.69346 23.25 8.98252 22.0195 8.98252 20.4375C8.98252 18.9141 7.69346 17.625 6.17002 17.625Z" fill="#8298AF"/>
</svg>
