<svg width="49" height="48" viewBox="0 0 49 48" fill="none" xmlns="http://www.w3.org/2000/svg">
<path d="M32.625 6C34.4531 6 36 7.54688 36 9.375V38.625C36 40.5234 34.4531 42 32.625 42H16.875C14.9766 42 13.5 40.5234 13.5 38.625V9.375C13.5 7.54688 14.9766 6 16.875 6H32.625ZM24.75 39.75C25.9453 39.75 27 38.7656 27 37.5C27 36.3047 25.9453 35.25 24.75 35.25C23.4844 35.25 22.5 36.3047 22.5 37.5C22.5 38.7656 23.4844 39.75 24.75 39.75ZM32.625 32.1562V10.2188C32.625 9.79688 32.2031 9.375 31.7812 9.375H17.7188C17.2266 9.375 16.875 9.79688 16.875 10.2188V32.1562C16.875 32.6484 17.2266 33 17.7188 33H31.7812C32.2031 33 32.625 32.6484 32.625 32.1562Z" fill="#8298AF"/>
</svg>
