<svg width="49" height="48" viewBox="0 0 49 48" fill="none" xmlns="http://www.w3.org/2000/svg">
<path d="M37.1189 24.0615C37.1189 17.2791 31.4577 11.7615 24.5001 11.7615C17.5415 11.7615 11.8804 17.2791 11.8804 24.0615C11.8804 30.8439 17.5414 36.3624 24.5001 36.3624C31.4577 36.3624 37.1189 30.8439 37.1189 24.0615ZM23.3254 31.2881V30.1022C22.4828 30.1022 21.6473 30.032 20.6448 29.3353C20.1115 28.9649 19.9799 28.2325 20.3504 27.6999C20.7208 27.1672 21.4523 27.0348 21.9856 27.4053C22.3027 27.6262 22.6661 27.7492 23.0083 27.7523H25.8337C25.84 27.7523 25.8455 27.7531 25.8518 27.7531C26.5354 27.7531 27.1047 27.1976 27.1047 26.4944C27.1047 25.8012 26.5424 25.2364 25.8518 25.2364H23.1485C21.1618 25.2364 19.5455 23.6181 19.5455 21.6286C19.5455 19.8027 20.9284 18.0208 23.3255 18.0208V16.8357C23.3255 16.1871 23.851 15.6608 24.5002 15.6608C25.1486 15.6608 25.6749 16.1871 25.6749 16.8357V18.0208C26.9402 18.0208 28.0188 18.5434 28.7854 19.3634C29.2286 19.8372 29.2035 20.5806 28.7297 21.0239C28.256 21.4673 27.5128 21.4422 27.0696 20.9683C26.7188 20.593 26.2403 20.3754 25.7556 20.3707H23.1479C22.4575 20.3707 21.8949 20.933 21.8949 21.6286C21.8949 22.3226 22.4572 22.8866 23.1487 22.8866H25.8519C27.8379 22.8866 29.4542 24.5056 29.4542 26.4944C29.4542 28.3406 28.0512 30.1022 25.6749 30.1022V31.2881C25.6749 31.9366 25.1486 32.4629 24.5002 32.4629C23.8508 32.4629 23.3254 31.9366 23.3254 31.2881Z" fill="#8298AF"/>
<path d="M13.6416 38.2835L13.0029 33.7701C12.912 33.1277 12.3169 32.6793 11.6751 32.7715C11.0326 32.8623 10.5856 33.4569 10.6765 34.0993L10.8195 35.1101C9.59978 33.6048 8.62857 31.8979 7.95577 30.0582C3.19325 17.037 14.6949 3.90465 28.1047 6.76518C28.7391 6.90021 29.3633 6.4959 29.4988 5.86133C29.6342 5.22675 29.2295 4.60259 28.595 4.46717C13.4526 1.23649 0.318471 16.0178 5.74909 30.8653C6.50992 32.9457 7.6077 34.877 8.98682 36.581L7.8516 36.3629C7.21421 36.2407 6.59859 36.6578 6.47617 37.295C6.35375 37.9322 6.77105 38.548 7.40821 38.6704L12.1565 39.5825C12.996 39.8196 13.7576 39.1011 13.6416 38.2835Z" fill="#8298AF"/>
<path d="M43.2509 17.1346C42.49 15.0543 41.3922 13.123 40.0131 11.419L41.1484 11.637C41.7853 11.7592 42.4014 11.3421 42.5239 10.705C42.6463 10.0677 42.229 9.45197 41.5918 9.32955L36.8426 8.41716C35.9984 8.17953 35.2432 8.90394 35.3584 9.71639L35.9971 14.2298C36.0883 14.8742 36.6852 15.3197 37.3249 15.2285C37.9674 15.1376 38.4145 14.5431 38.3235 13.9007L38.1805 12.8899C39.4003 14.3952 40.3715 16.1021 41.0443 17.9417C45.8065 30.9621 34.3065 44.0961 20.8954 41.2348C20.261 41.0994 19.6366 41.504 19.5012 42.1386C19.3658 42.7732 19.7705 43.3973 20.4051 43.5328C35.5472 46.7636 48.6815 31.9823 43.2509 17.1346Z" fill="#8298AF"/>
</svg>
