<svg width="71" height="54" viewBox="0 0 71 54" fill="none" xmlns="http://www.w3.org/2000/svg">
<path d="M11.2518 18.6375H15.6386C16.4945 18.6375 17.1883 17.9437 17.1883 17.0878C17.1883 16.2319 16.4945 15.5381 15.6386 15.5381H11.2518C10.5526 15.5381 9.98593 16.1048 9.98593 16.8039V17.3715C9.98579 18.0708 10.5526 18.6375 11.2518 18.6375Z" fill="#FF7A2F"/>
<path d="M44.4303 11.7393C40.3919 11.5733 36.698 13.0429 33.954 15.5386H21.8886C21.0354 15.5386 20.3035 16.2061 20.2879 17.0592C20.2719 17.9283 20.9718 18.6379 21.8373 18.6379H31.3669H34.9608C35.8141 18.6379 36.5459 19.3055 36.5616 20.1586C36.5775 21.0277 35.8777 21.7373 35.0122 21.7373H32.1627H32.1625H2.2143C1.47857 21.7373 0.882141 22.3337 0.882141 23.0695V23.5045C0.882141 24.2403 1.47857 24.8367 2.2143 24.8367H29.2343H34.9607C35.8139 24.8367 36.5458 25.5042 36.5614 26.3574C36.5774 27.2265 35.8775 27.9361 35.012 27.9361H32.4583H29.2343H26.7819C25.9287 27.9361 25.1968 28.6036 25.1812 29.4567C25.1654 30.3258 25.8651 31.0355 26.7306 31.0355H29.9059H32.4583H34.2336C35.0868 31.0355 35.8187 31.7028 35.8344 32.556C35.8504 33.4251 35.1508 34.1345 34.2853 34.1348H25.1809C24.325 34.1348 23.6313 34.8286 23.6313 35.6844C23.6313 36.5403 24.3251 37.2341 25.181 37.2341H33.954C36.5574 39.6019 40.0159 41.0461 43.8124 41.0461C51.9778 41.0461 58.584 34.3702 58.4706 26.1787C58.3632 18.4391 52.1634 12.0571 44.4303 11.7393ZM48.7961 32.0633C48.4676 32.7288 48.0227 33.2839 47.4611 33.7289C46.8993 34.174 46.2427 34.5089 45.4908 34.7336C45.2977 34.7912 45.1012 34.8414 44.9012 34.8842V36.753C44.9012 37.4777 44.3137 38.0653 43.589 38.0653C42.8642 38.0653 42.2767 37.4777 42.2767 36.753V35.0373C42.2767 35.0373 42.2783 35.0375 42.279 35.0375C41.9969 35.0137 41.7258 34.9774 41.4662 34.9276C40.9692 34.8324 40.5308 34.7182 40.1506 34.5841C39.7702 34.4503 39.4527 34.31 39.1979 34.1628C38.9429 34.016 38.7592 33.8865 38.647 33.7741C38.5346 33.6619 38.4546 33.4998 38.4073 33.2879C38.3597 33.0764 38.3361 32.7718 38.3361 32.3741C38.3361 32.1064 38.3446 31.8815 38.3619 31.7001C38.3792 31.5185 38.4073 31.3717 38.4462 31.2594C38.4851 31.147 38.5369 31.0671 38.6018 31.0196C38.6666 30.9722 38.7421 30.9484 38.8286 30.9484C38.9495 30.9484 39.1203 31.0196 39.3405 31.1623C39.5608 31.3048 39.8438 31.4627 40.1895 31.6354C40.535 31.8083 40.9477 31.9658 41.4273 32.1084C41.9069 32.2509 42.462 32.3223 43.0929 32.3223C43.5077 32.3223 43.8792 32.2727 44.2077 32.1733C44.536 32.074 44.8147 31.9336 45.0437 31.752C45.2726 31.5706 45.4476 31.346 45.5686 31.0781C45.6895 30.8104 45.7502 30.5123 45.7502 30.1836C45.7502 29.8036 45.6464 29.4772 45.439 29.205C45.2317 28.9327 44.9615 28.691 44.6289 28.4791C44.2961 28.2675 43.9181 28.0689 43.4948 27.8828C43.0713 27.6971 42.6348 27.5004 42.1857 27.2931C41.7363 27.0856 41.2999 26.8503 40.8766 26.5866C40.453 26.3233 40.075 26.0079 39.7424 25.6405C39.4096 25.2732 39.1396 24.839 38.9323 24.3378C38.725 23.8367 38.6212 23.2361 38.6212 22.5362C38.6212 21.7325 38.7702 21.0261 39.0683 20.4169C39.3664 19.8077 39.7682 19.3021 40.2738 18.9003C40.7792 18.4985 41.3755 18.1984 42.0625 17.9994C42.1334 17.979 42.2048 17.9598 42.2767 17.9414V16.0189C42.2767 15.294 42.8642 14.7066 43.589 14.7066C44.3137 14.7066 44.9012 15.294 44.9012 16.0189V17.7291C45.0804 17.744 45.2597 17.7648 45.439 17.7921C45.8364 17.8526 46.208 17.9346 46.5538 18.0383C46.8993 18.1419 47.2061 18.2587 47.4741 18.3883C47.7419 18.5179 47.9191 18.626 48.0055 18.7124C48.0919 18.7989 48.1501 18.8724 48.1806 18.9328C48.2107 18.9935 48.2367 19.0734 48.2583 19.1725C48.2798 19.2719 48.2949 19.3973 48.3036 19.5484C48.3122 19.6997 48.3167 19.8875 48.3167 20.1122C48.3167 20.3629 48.3101 20.5745 48.2972 20.7473C48.2843 20.9203 48.2626 21.0628 48.2324 21.175C48.202 21.2875 48.1589 21.3694 48.1028 21.4213C48.0465 21.4732 47.971 21.499 47.876 21.499C47.7808 21.499 47.6297 21.4387 47.4223 21.3176C47.215 21.1968 46.96 21.065 46.6576 20.9223C46.355 20.7798 46.005 20.6503 45.6077 20.5336C45.21 20.4169 44.7737 20.3586 44.2986 20.3586C43.9269 20.3586 43.6029 20.4038 43.3264 20.4947C43.0498 20.5855 42.8187 20.7109 42.6329 20.8707C42.447 21.0307 42.3089 21.2229 42.2182 21.4474C42.1275 21.6722 42.0821 21.9097 42.0821 22.1603C42.0821 22.532 42.1835 22.8537 42.3867 23.1259C42.5895 23.3982 42.8618 23.6402 43.2032 23.8518C43.5445 24.0637 43.9311 24.2623 44.3633 24.4481C44.7953 24.634 45.236 24.8305 45.6853 25.0378C46.1346 25.2452 46.5751 25.4807 47.0074 25.7441C47.4395 26.0079 47.824 26.3233 48.161 26.6903C48.4979 27.0577 48.7702 27.4897 48.9775 27.9864C49.1849 28.4835 49.2887 29.0687 49.2887 29.7428C49.2887 30.6245 49.1244 31.398 48.7961 32.0633Z" fill="#FF7A2F"/>
<path d="M43.6931 0C30.8779 0 20.1481 8.92809 17.3842 20.9036H20.7772C20.9128 20.3922 21.0639 19.8869 21.2322 19.3898C20.2108 19.1212 19.4541 18.1924 19.4541 17.0878C19.4541 15.7739 20.5231 14.705 21.8369 14.705H23.4175C27.5758 7.86208 35.1007 3.29122 43.6931 3.29122C56.787 3.29122 67.4017 13.9058 67.4017 26.9999C67.4017 40.0939 56.7869 50.7086 43.6931 50.7086C32.2677 50.7086 22.7309 42.6264 20.4856 31.8677H17.1317C19.4238 44.4559 30.4435 54 43.6931 54C58.6048 54 70.693 41.9117 70.693 27.0001C70.693 12.0883 58.6048 0 43.6931 0Z" fill="#FF7A2F"/>
<path d="M20.532 27.9355H14.8043C14.2321 27.9355 13.7683 28.3993 13.7683 28.9715V29.9988C13.7683 30.571 14.2322 31.0348 14.8043 31.0348H20.532C21.3879 31.0348 22.0817 30.341 22.0817 29.4851C22.0817 28.6292 21.3878 27.9355 20.532 27.9355Z" fill="#FF7A2F"/>
</svg>
