<svg width="182" height="52" viewBox="0 0 182 52" fill="none" xmlns="http://www.w3.org/2000/svg">
<path d="M180.571 10.375V18.1875H160.805V10.375H180.571ZM164.633 3.1875H175.415V30.7266C175.415 31.1432 175.486 31.4948 175.63 31.7812C175.773 32.0547 175.994 32.263 176.294 32.4062C176.593 32.5365 176.977 32.6016 177.446 32.6016C177.771 32.6016 178.149 32.5625 178.579 32.4844C179.021 32.4062 179.347 32.3411 179.555 32.2891L181.118 39.8672C180.636 40.0104 179.946 40.1862 179.047 40.3945C178.162 40.6029 177.107 40.7396 175.883 40.8047C173.409 40.9349 171.333 40.681 169.653 40.043C167.973 39.3919 166.71 38.3698 165.864 36.9766C165.018 35.5833 164.607 33.8385 164.633 31.7422V3.1875Z" fill="black"/>
<path d="M143.593 40.9219C140.39 40.9219 137.63 40.3099 135.312 39.0859C133.007 37.849 131.23 36.0781 129.98 33.7734C128.743 31.4557 128.125 28.6823 128.125 25.4531C128.125 22.3542 128.75 19.6458 130 17.3281C131.25 15.0104 133.014 13.207 135.293 11.918C137.571 10.6289 140.26 9.98438 143.359 9.98438C145.625 9.98438 147.675 10.3359 149.511 11.0391C151.347 11.7422 152.916 12.7643 154.218 14.1055C155.52 15.4336 156.523 17.0482 157.226 18.9492C157.929 20.8503 158.281 22.9922 158.281 25.375V27.875H131.484V21.9375H148.359C148.346 21.0781 148.125 20.3229 147.695 19.6719C147.278 19.0078 146.712 18.4935 145.996 18.1289C145.293 17.7513 144.492 17.5625 143.593 17.5625C142.721 17.5625 141.92 17.7513 141.191 18.1289C140.462 18.4935 139.876 19.0013 139.433 19.6523C139.004 20.3034 138.776 21.0651 138.75 21.9375V28.3438C138.75 29.3073 138.951 30.1667 139.355 30.9219C139.759 31.6771 140.338 32.2695 141.093 32.6992C141.849 33.1289 142.76 33.3438 143.828 33.3438C144.57 33.3438 145.247 33.2396 145.859 33.0312C146.484 32.8229 147.018 32.5234 147.461 32.1328C147.903 31.7292 148.229 31.2474 148.437 30.6875H158.281C157.942 32.7708 157.142 34.5807 155.879 36.1172C154.616 37.6406 152.942 38.8255 150.859 39.6719C148.789 40.5052 146.367 40.9219 143.593 40.9219Z" fill="black"/>
<path d="M113.213 0.375H123.916V27.7969C123.903 30.401 123.245 32.6927 121.943 34.6719C120.654 36.638 118.87 38.1745 116.591 39.2812C114.326 40.375 111.715 40.9219 108.759 40.9219C106.194 40.9219 103.851 40.4792 101.728 39.5938C99.6058 38.6953 97.9131 37.2891 96.65 35.375C95.387 33.4479 94.762 30.9479 94.775 27.875H105.634C105.673 28.8776 105.843 29.724 106.142 30.4141C106.455 31.1042 106.884 31.625 107.431 31.9766C107.991 32.3151 108.668 32.4844 109.463 32.4844C110.27 32.4844 110.947 32.3086 111.494 31.957C112.054 31.6055 112.477 31.0846 112.763 30.3945C113.05 29.6914 113.2 28.8255 113.213 27.7969V0.375Z" fill="black"/>
<path d="M73.5836 51.625C72.3466 51.625 71.1683 51.5273 70.0485 51.332C68.9287 51.1497 67.9456 50.8958 67.0992 50.5703L69.443 42.9141C70.3284 43.2266 71.1357 43.4284 71.8649 43.5195C72.6071 43.6107 73.2386 43.5586 73.7594 43.3633C74.2933 43.168 74.6774 42.7969 74.9117 42.25L75.1461 41.7031L64.5992 10.375H75.8492L80.693 31.1562H81.0055L85.9274 10.375H97.2555L86.318 42.875C85.7711 44.5286 84.9768 46.013 83.9352 47.3281C82.9065 48.6562 81.5524 49.7044 79.8727 50.4727C78.193 51.2409 76.0966 51.625 73.5836 51.625Z" fill="black"/>
<path d="M43.9596 40.8438C42.0456 40.8438 40.3529 40.5312 38.8815 39.9062C37.4232 39.2682 36.2773 38.3047 35.444 37.0156C34.6107 35.7266 34.194 34.0859 34.194 32.0938C34.194 30.4531 34.4739 29.0534 35.0338 27.8945C35.5937 26.7227 36.375 25.7656 37.3776 25.0234C38.3802 24.2812 39.5456 23.7148 40.8737 23.3242C42.2148 22.9336 43.6601 22.6797 45.2096 22.5625C46.8893 22.4323 48.237 22.276 49.2526 22.0938C50.2812 21.8984 51.0234 21.6315 51.4792 21.293C51.9349 20.9414 52.1628 20.4792 52.1628 19.9062V19.8281C52.1628 19.0469 51.8633 18.4479 51.2643 18.0312C50.6654 17.6146 49.8971 17.4062 48.9596 17.4062C47.931 17.4062 47.0911 17.6341 46.4401 18.0898C45.8021 18.5326 45.418 19.2161 45.2878 20.1406H35.3659C35.4961 18.3177 36.0755 16.638 37.1042 15.1016C38.1458 13.5521 39.6628 12.3151 41.6549 11.3906C43.6471 10.4531 46.1341 9.98438 49.1159 9.98438C51.2643 9.98438 53.1914 10.2383 54.8971 10.7461C56.6029 11.2409 58.0547 11.9375 59.2526 12.8359C60.4505 13.7214 61.362 14.763 61.987 15.9609C62.625 17.1458 62.944 18.4349 62.944 19.8281V40.375H52.8659V36.1562H52.6315C52.0325 37.276 51.3034 38.181 50.444 38.8711C49.5976 39.5612 48.6276 40.0625 47.5338 40.375C46.4531 40.6875 45.2617 40.8438 43.9596 40.8438ZM47.4753 34.0469C48.2956 34.0469 49.0638 33.8776 49.7799 33.5391C50.5091 33.2005 51.1016 32.7122 51.5573 32.0742C52.013 31.4362 52.2409 30.6615 52.2409 29.75V27.25C51.9544 27.3672 51.6484 27.4779 51.3229 27.582C51.0104 27.6862 50.6719 27.7839 50.3073 27.875C49.9557 27.9661 49.5781 28.0508 49.1745 28.1289C48.7838 28.207 48.3737 28.2786 47.944 28.3438C47.1107 28.474 46.4271 28.6888 45.8932 28.9883C45.3724 29.2747 44.9818 29.6328 44.7213 30.0625C44.4739 30.4792 44.3503 30.9479 44.3503 31.4688C44.3503 32.3021 44.6432 32.9401 45.2292 33.3828C45.8151 33.8255 46.5638 34.0469 47.4753 34.0469Z" fill="black"/>
<path d="M0.693024 40.375V0.375H17.9586C20.9274 0.375 23.5251 0.960938 25.7516 2.13281C27.9782 3.30469 29.71 4.95182 30.9469 7.07422C32.1839 9.19662 32.8024 11.6771 32.8024 14.5156C32.8024 17.3802 32.1644 19.8607 30.8883 21.957C29.6253 24.0534 27.848 25.668 25.5563 26.8008C23.2777 27.9336 20.6149 28.5 17.568 28.5H7.25552V20.0625H15.3805C16.6566 20.0625 17.7438 19.8411 18.6422 19.3984C19.5537 18.9427 20.2503 18.2982 20.7321 17.4648C21.2269 16.6315 21.4743 15.6484 21.4743 14.5156C21.4743 13.3698 21.2269 12.3932 20.7321 11.5859C20.2503 10.7656 19.5537 10.1406 18.6422 9.71094C17.7438 9.26823 16.6566 9.04687 15.3805 9.04687H11.5524V40.375H0.693024Z" fill="black"/>
</svg>
