<svg width="25" height="24" viewBox="0 0 25 24" fill="none" xmlns="http://www.w3.org/2000/svg">
<path d="M5.11792 21C4.56792 21 4.09709 20.8042 3.70542 20.4125C3.31375 20.0208 3.11792 19.55 3.11792 19V5C3.11792 4.45 3.31375 3.97917 3.70542 3.5875C4.09709 3.19583 4.56792 3 5.11792 3H19.1179C19.6679 3 20.1388 3.19583 20.5304 3.5875C20.9221 3.97917 21.1179 4.45 21.1179 5V7.5H19.1179V5H5.11792V19H19.1179V16.5H21.1179V19C21.1179 19.55 20.9221 20.0208 20.5304 20.4125C20.1388 20.8042 19.6679 21 19.1179 21H5.11792ZM13.1179 17C12.5679 17 12.0971 16.8042 11.7054 16.4125C11.3138 16.0208 11.1179 15.55 11.1179 15V9C11.1179 8.45 11.3138 7.97917 11.7054 7.5875C12.0971 7.19583 12.5679 7 13.1179 7H20.1179C20.6679 7 21.1388 7.19583 21.5304 7.5875C21.9221 7.97917 22.1179 8.45 22.1179 9V15C22.1179 15.55 21.9221 16.0208 21.5304 16.4125C21.1388 16.8042 20.6679 17 20.1179 17H13.1179ZM20.1179 15V9H13.1179V15H20.1179ZM16.1179 13.5C16.5346 13.5 16.8888 13.3542 17.1804 13.0625C17.4721 12.7708 17.6179 12.4167 17.6179 12C17.6179 11.5833 17.4721 11.2292 17.1804 10.9375C16.8888 10.6458 16.5346 10.5 16.1179 10.5C15.7013 10.5 15.3471 10.6458 15.0554 10.9375C14.7638 11.2292 14.6179 11.5833 14.6179 12C14.6179 12.4167 14.7638 12.7708 15.0554 13.0625C15.3471 13.3542 15.7013 13.5 16.1179 13.5Z" fill="#28A745"/>
</svg>
