<svg width="30" height="30" viewBox="0 0 30 30" fill="none" xmlns="http://www.w3.org/2000/svg">
<path d="M16.6667 30V26.6667H20V30H16.6667ZM13.3333 26.6667V18.3333H16.6667V26.6667H13.3333ZM26.6667 21.6667V15H30V21.6667H26.6667ZM23.3333 15V11.6667H26.6667V15H23.3333ZM3.33333 18.3333V15H6.66667V18.3333H3.33333ZM0 15V11.6667H3.33333V15H0ZM15 3.33333V0H18.3333V3.33333H15ZM2.5 7.5H7.5V2.5H2.5V7.5ZM0 8.33333V1.66667C0 1.19444 0.159722 0.798611 0.479167 0.479167C0.798611 0.159722 1.19444 0 1.66667 0H8.33333C8.80556 0 9.20139 0.159722 9.52083 0.479167C9.84028 0.798611 10 1.19444 10 1.66667V8.33333C10 8.80556 9.84028 9.20139 9.52083 9.52083C9.20139 9.84028 8.80556 10 8.33333 10H1.66667C1.19444 10 0.798611 9.84028 0.479167 9.52083C0.159722 9.20139 0 8.80556 0 8.33333ZM2.5 27.5H7.5V22.5H2.5V27.5ZM0 28.3333V21.6667C0 21.1944 0.159722 20.7986 0.479167 20.4792C0.798611 20.1597 1.19444 20 1.66667 20H8.33333C8.80556 20 9.20139 20.1597 9.52083 20.4792C9.84028 20.7986 10 21.1944 10 21.6667V28.3333C10 28.8056 9.84028 29.2014 9.52083 29.5208C9.20139 29.8403 8.80556 30 8.33333 30H1.66667C1.19444 30 0.798611 29.8403 0.479167 29.5208C0.159722 29.2014 0 28.8056 0 28.3333ZM22.5 7.5H27.5V2.5H22.5V7.5ZM20 8.33333V1.66667C20 1.19444 20.1597 0.798611 20.4792 0.479167C20.7986 0.159722 21.1944 0 21.6667 0H28.3333C28.8056 0 29.2014 0.159722 29.5208 0.479167C29.8403 0.798611 30 1.19444 30 1.66667V8.33333C30 8.80556 29.8403 9.20139 29.5208 9.52083C29.2014 9.84028 28.8056 10 28.3333 10H21.6667C21.1944 10 20.7986 9.84028 20.4792 9.52083C20.1597 9.20139 20 8.80556 20 8.33333ZM23.3333 30V25H20V21.6667H26.6667V26.6667H30V30H23.3333ZM16.6667 18.3333V15H23.3333V18.3333H16.6667ZM10 18.3333V15H6.66667V11.6667H16.6667V15H13.3333V18.3333H10ZM11.6667 10V3.33333H15V6.66667H18.3333V10H11.6667ZM3.75 6.25V3.75H6.25V6.25H3.75ZM3.75 26.25V23.75H6.25V26.25H3.75ZM23.75 6.25V3.75H26.25V6.25H23.75Z" fill="#242424"/>
</svg>
