<svg width="25" height="24" viewBox="0 0 25 24" fill="none" xmlns="http://www.w3.org/2000/svg">
<path d="M7.11792 23C6.56792 23 6.09709 22.8042 5.70542 22.4125C5.31375 22.0208 5.11792 21.55 5.11792 21V3C5.11792 2.45 5.31375 1.97917 5.70542 1.5875C6.09709 1.19583 6.56792 1 7.11792 1H17.1179C17.6679 1 18.1388 1.19583 18.5304 1.5875C18.9221 1.97917 19.1179 2.45 19.1179 3V21C19.1179 21.55 18.9221 22.0208 18.5304 22.4125C18.1388 22.8042 17.6679 23 17.1179 23H7.11792ZM7.11792 20V21H17.1179V20H7.11792ZM7.11792 18H17.1179V6H7.11792V18ZM7.11792 4H17.1179V3H7.11792V4Z" fill="#28A745"/>
</svg>
