<svg width="94" height="94" viewBox="0 0 94 94" fill="none" xmlns="http://www.w3.org/2000/svg">
<circle cx="47.0001" cy="46.631" r="46.631" fill="#23A26D" fill-opacity="0.12"/>
<path d="M46.1676 24.4253C33.9326 24.4253 23.9624 34.3954 23.9624 46.6305C23.9624 58.8656 33.9326 68.8358 46.1676 68.8358C58.4027 68.8358 68.3729 58.8656 68.3729 46.6305C68.3729 34.3954 58.4027 24.4253 46.1676 24.4253ZM56.7817 41.5233L44.1914 54.1137C43.8805 54.4246 43.4586 54.6022 43.0145 54.6022C42.5704 54.6022 42.1485 54.4246 41.8376 54.1137L35.5535 47.8296C34.9096 47.1857 34.9096 46.1198 35.5535 45.4759C36.1975 44.8319 37.2633 44.8319 37.9073 45.4759L43.0145 50.5831L54.428 39.1696C55.0719 38.5256 56.1378 38.5256 56.7817 39.1696C57.4257 39.8135 57.4257 40.8572 56.7817 41.5233Z" fill="#23A26D"/>
</svg>
