<svg width="35" height="28" viewBox="0 0 35 28" fill="none" xmlns="http://www.w3.org/2000/svg">
<path d="M31.9125 0C33.3141 0 34.5 1.18594 34.5 2.5875V19.8375C34.5 21.293 33.3141 22.425 31.9125 22.425H18.975V24.15H28.4625C28.8938 24.15 29.325 24.5813 29.325 25.0125V26.7375C29.325 27.2227 28.8938 27.6 28.4625 27.6H6.0375C5.55234 27.6 5.175 27.2227 5.175 26.7375V25.0125C5.175 24.5813 5.55234 24.15 6.0375 24.15H15.525V22.425H2.5875C1.13203 22.425 0 21.293 0 19.8375V2.5875C0 1.18594 1.13203 0 2.5875 0H31.9125ZM31.05 18.975V3.45H3.45V18.975H31.05Z" fill="#8298AF"/>
</svg>
