<svg width="56" height="56" viewBox="0 0 56 56" fill="none" xmlns="http://www.w3.org/2000/svg">
<circle cx="28" cy="28" r="28" fill="#6878EC"/>
<g clip-path="url(#clip0_1_323)">
<path fill-rule="evenodd" clip-rule="evenodd" d="M33.4485 29.3184C35.0468 30.4034 36.1668 31.8734 36.1668 33.8334V37.3334H39.6668C40.3085 37.3334 40.8335 36.8084 40.8335 36.1667V33.8334C40.8335 31.29 36.6685 29.785 33.4485 29.3184Z" fill="white"/>
<path d="M24.4999 28.0001C27.0772 28.0001 29.1666 25.9107 29.1666 23.3334C29.1666 20.7561 27.0772 18.6667 24.4999 18.6667C21.9226 18.6667 19.8333 20.7561 19.8333 23.3334C19.8333 25.9107 21.9226 28.0001 24.4999 28.0001Z" fill="white"/>
<path fill-rule="evenodd" clip-rule="evenodd" d="M31.4999 28.0001C34.0782 28.0001 36.1666 25.9117 36.1666 23.3334C36.1666 20.7551 34.0782 18.6667 31.4999 18.6667C30.9516 18.6667 30.4382 18.7834 29.9482 18.9467C30.9166 20.1484 31.4999 21.6767 31.4999 23.3334C31.4999 24.9901 30.9166 26.5184 29.9482 27.7201C30.4382 27.8834 30.9516 28.0001 31.4999 28.0001Z" fill="white"/>
<path fill-rule="evenodd" clip-rule="evenodd" d="M24.4998 29.1667C21.3848 29.1667 15.1665 30.7301 15.1665 33.8334V36.1667C15.1665 36.8084 15.6915 37.3334 16.3332 37.3334H32.6665C33.3082 37.3334 33.8332 36.8084 33.8332 36.1667V33.8334C33.8332 30.7301 27.6148 29.1667 24.4998 29.1667Z" fill="white"/>
</g>
<defs>
<clipPath id="clip0_1_323">
<rect width="28" height="28" fill="white" transform="translate(14 14)"/>
</clipPath>
</defs>
</svg>
